<svg width="133" height="84" viewBox="0 0 133 84" fill="none" xmlns="http://www.w3.org/2000/svg">
<g id="Layer 2">
<g id="Layer 9">
<path id="Vector" d="M128.479 32.899L123.316 38.8177H123.296L107.764 25.58L65.5999 75.2029L46.2618 75.3754L102.437 10.039L128.479 32.899Z" fill="#353E4B"/>
<path id="Vector_2" d="M83.722 28.2844L79.6692 33.0094L79.4022 32.7793L70.2757 24.8417L70.2476 24.8713L27.1533 75.2806L6.62714 75.3257L58.9276 15.0934L63.0147 10.3887L83.722 28.2844Z" fill="#353E4B"/>
<path id="Vector_3" d="M37.4085 37.1888L50.1601 22.3891L50.1195 17.7419L37.051 18.0434L37.2259 37.5618" fill="#353E4B"/>
<path id="Vector_4" d="M104.746 44.331L101.127 48.5709L105.385 52.1743L109.005 47.9344L104.746 44.331Z" fill="#0B5FAE"/>
<path id="Vector_5" d="M108.557 39.8683L104.938 44.1082L109.196 47.7116L112.816 43.4717L108.557 39.8683Z" fill="#0B5FAE"/>
<path id="Vector_6" d="M109.23 48.1229L105.61 52.3628L109.869 55.9662L113.489 51.7263L109.23 48.1229Z" fill="#0B5FAE"/>
<path id="Vector_7" d="M113.04 43.6614L109.42 47.9013L113.679 51.5047L117.298 47.2648L113.04 43.6614Z" fill="#0B5FAE"/>
<path id="Vector_8" d="M123.464 38.928L132.766 28.4196" stroke="#353E4B" stroke-width="2" stroke-miterlimit="10"/>
<path id="Vector_9" d="M1.05011 82.755L10.3515 72.2466" stroke="#353E4B" stroke-width="2" stroke-miterlimit="10"/>
<path id="Vector_10" d="M94.7835 15.2368L86.2279 7.96201L78.9208 16.4797L87.4763 23.7546L94.7835 15.2368Z" fill="#0B5FAE"/>
<path id="Vector_11" d="M85.2024 7.27519L76.6469 0.000366211L69.3397 8.51809L77.8953 15.7929L85.2024 7.27519Z" fill="#0B5FAE"/>
</g>
</g>
</svg>
