<svg width="18" height="18" viewBox="0 0 18 18" fill="none" xmlns="http://www.w3.org/2000/svg">
<path d="M16.5 10.9407V11.774C16.5 13.3657 15.6084 14.749 14.2917 15.449L14.8334 17.6073H13.1667L12.75 15.9407C12.6084 15.9407 12.475 15.9407 12.3334 15.9407H5.66669C5.52502 15.9407 5.39169 15.9407 5.25002 15.9407L4.83335 17.6073H3.16669L3.70835 15.449C2.39169 14.749 1.50002 13.3657 1.50002 11.774V10.9407H0.666687V9.27401H15.6667V3.44067C15.6667 3.21966 15.5789 3.0077 15.4226 2.85142C15.2663 2.69514 15.0544 2.60734 14.8334 2.60734C14.4167 2.60734 14.1 2.89067 14 3.26567C14.525 3.71567 14.8334 4.38234 14.8334 5.10734H9.83335C9.83335 4.4443 10.0967 3.80841 10.5656 3.33957C11.0344 2.87073 11.6703 2.60734 12.3334 2.60734C12.3834 2.60734 12.425 2.60734 12.475 2.60734C12.8167 1.64067 13.7417 0.940674 14.8334 0.940674C15.4964 0.940674 16.1323 1.20407 16.6011 1.67291C17.07 2.14175 17.3334 2.77763 17.3334 3.44067V10.9407H16.5ZM14.8334 10.9407H3.16669V11.774C3.16669 12.437 3.43008 13.0729 3.89892 13.5418C4.36776 14.0106 5.00365 14.274 5.66669 14.274H12.3334C12.9964 14.274 13.6323 14.0106 14.1011 13.5418C14.57 13.0729 14.8334 12.437 14.8334 11.774V10.9407Z" fill="#737D8C"/>
</svg>
