<svg width="18" height="13" viewBox="0 0 18 13" fill="none" xmlns="http://www.w3.org/2000/svg">
<path d="M15.6667 4.60734V2.10734C15.6667 1.66531 15.4911 1.24139 15.1785 0.928829C14.866 0.616268 14.442 0.440674 14 0.440674H4.00002C3.55799 0.440674 3.13407 0.616268 2.82151 0.928829C2.50895 1.24139 2.33335 1.66531 2.33335 2.10734V4.60734C1.89133 4.60734 1.4674 4.78294 1.15484 5.0955C0.842282 5.40806 0.666687 5.83198 0.666687 6.27401V10.4407H1.77502L2.33335 12.1073H3.16669L3.72502 10.4407H14.275L14.8334 12.1073H15.6667L16.225 10.4407H17.3334V6.27401C17.3334 5.83198 17.1578 5.40806 16.8452 5.0955C16.5326 4.78294 16.1087 4.60734 15.6667 4.60734ZM9.83335 2.10734H14V4.60734H9.83335M4.00002 2.10734H8.16669V4.60734H4.00002M15.6667 8.77401H2.33335V6.27401H15.6667V8.77401Z" fill="#737D8C"/>
</svg>
