<svg width="15" height="13" viewBox="0 0 15 13" fill="none" xmlns="http://www.w3.org/2000/svg">
<path d="M14.8106 4.65289L14.4379 4.00212C14.4212 3.97344 14.3938 3.95254 14.3616 3.944C14.3295 3.93546 14.2954 3.93997 14.2666 3.95654L13.4694 4.42182L12.2383 1.02337C12.1733 0.82058 12.0456 0.643694 11.8735 0.518246C11.7013 0.392798 11.4938 0.32528 11.2808 0.32544H4.46819C3.92262 0.32544 3.43836 0.677546 3.27013 1.19785L2.09722 4.42339L1.29851 3.95811C1.26971 3.94154 1.23552 3.93703 1.20341 3.94557C1.17131 3.95411 1.14388 3.97501 1.12713 4.0037L0.754502 4.65289C0.719912 4.71263 0.740351 4.78808 0.800098 4.82266L1.74975 5.37597L1.52177 6.00473C1.5029 6.05503 1.49347 6.10848 1.49347 6.16192V11.6353C1.49347 11.8821 1.67899 12.0817 1.90697 12.0817H2.96982C3.16321 12.0817 3.33145 11.9355 3.37232 11.7312L3.49339 11.1386H12.0717L12.1927 11.7312C12.2352 11.9355 12.4018 12.0817 12.5952 12.0817H13.6581C13.8861 12.0817 14.0716 11.8821 14.0716 11.6353V6.16192C14.0716 6.10848 14.0622 6.05503 14.0433 6.00473L13.8153 5.37597L14.7634 4.82266C14.7919 4.80618 14.8129 4.77916 14.8217 4.74742C14.8305 4.71567 14.8265 4.68173 14.8106 4.65289ZM3.88331 7.91617C3.53584 7.91617 3.2544 7.6348 3.2544 7.28741C3.2544 6.94001 3.53584 6.65864 3.88331 6.65864C4.23078 6.65864 4.51222 6.94001 4.51222 7.28741C4.51222 7.6348 4.23078 7.91617 3.88331 7.91617ZM9.9837 9.09509C9.9837 9.16426 9.9271 9.22085 9.85792 9.22085H5.70714C5.63796 9.22085 5.58136 9.16426 5.58136 9.09509V7.7747C5.58136 7.70553 5.63796 7.64894 5.70714 7.64894H6.33605C6.40523 7.64894 6.46183 7.70553 6.46183 7.7747V8.34058H9.10323V7.7747C9.10323 7.70553 9.15983 7.64894 9.22901 7.64894H9.85792C9.9271 7.64894 9.9837 7.70553 9.9837 7.7747V9.09509ZM11.6817 7.91617C11.3343 7.91617 11.0528 7.6348 11.0528 7.28741C11.0528 6.94001 11.3343 6.65864 11.6817 6.65864C12.0292 6.65864 12.3107 6.94001 12.3107 7.28741C12.3107 7.6348 12.0292 7.91617 11.6817 7.91617ZM3.19151 4.7252L4.33455 1.58296L4.34241 1.56253L4.3487 1.54209C4.366 1.49022 4.41316 1.45564 4.46819 1.45564H11.1912L12.3767 4.7252H3.19151Z" fill="#0B5FAE"/>
</svg>
