<svg width="13" height="13" viewBox="0 0 13 13" fill="none" xmlns="http://www.w3.org/2000/svg">
<path d="M1.34175 5.19681C1.20831 5.19681 1.08034 5.14382 0.985985 5.04948C0.891631 4.95515 0.838623 4.82721 0.838623 4.6938V0.670734C0.838623 0.537328 0.891631 0.409385 0.985985 0.315053C1.08034 0.22072 1.20831 0.167725 1.34175 0.167725H5.36675C5.50018 0.167725 5.62816 0.22072 5.72251 0.315053C5.81686 0.409385 5.86987 0.537328 5.86987 0.670734V4.6938C5.86987 4.82721 5.81686 4.95515 5.72251 5.04948C5.62816 5.14382 5.50018 5.19681 5.36675 5.19681H1.34175ZM8.3855 5.19681C8.25206 5.19681 8.12409 5.14382 8.02973 5.04948C7.93538 4.95515 7.88237 4.82721 7.88237 4.6938V0.670734C7.88237 0.537328 7.93538 0.409385 8.02973 0.315053C8.12409 0.22072 8.25206 0.167725 8.3855 0.167725H12.4095C12.5429 0.167725 12.6709 0.22072 12.7653 0.315053C12.8596 0.409385 12.9126 0.537328 12.9126 0.670734V4.6938C12.9126 4.82721 12.8596 4.95515 12.7653 5.04948C12.6709 5.14382 12.5429 5.19681 12.4095 5.19681H8.3855ZM1.34175 12.2389C1.20831 12.2389 1.08034 12.186 0.985985 12.0916C0.891631 11.9973 0.838623 11.8693 0.838623 11.7359V7.71186C0.838623 7.57845 0.891631 7.45051 0.985985 7.35618C1.08034 7.26185 1.20831 7.20885 1.34175 7.20885H5.36675C5.50018 7.20885 5.62816 7.26185 5.72251 7.35618C5.81686 7.45051 5.86987 7.57845 5.86987 7.71186V11.7359C5.86987 11.8693 5.81686 11.9973 5.72251 12.0916C5.62816 12.186 5.50018 12.2389 5.36675 12.2389H1.34175ZM8.3855 12.2389C8.25206 12.2389 8.12409 12.186 8.02973 12.0916C7.93538 11.9973 7.88237 11.8693 7.88237 11.7359V7.71186C7.88237 7.57845 7.93538 7.45051 8.02973 7.35618C8.12409 7.26185 8.25206 7.20885 8.3855 7.20885H12.4095C12.5429 7.20885 12.6709 7.26185 12.7653 7.35618C12.8596 7.45051 12.9126 7.57845 12.9126 7.71186V11.7359C12.9126 11.8693 12.8596 11.9973 12.7653 12.0916C12.6709 12.186 12.5429 12.2389 12.4095 12.2389H8.3855Z" fill="#0B5FAE"/>
</svg>
