<svg width="134" height="134" viewBox="0 0 134 134" fill="none" xmlns="http://www.w3.org/2000/svg">
<g filter="url(#filter0_d_58_2504)">
<circle cx="62" cy="60" r="50" fill="white"/>
</g>
<path fill-rule="evenodd" clip-rule="evenodd" d="M64.5305 31.1607C63.099 31.5465 63.0734 31.5692 54.8019 39.7892C49.787 44.7728 46.8985 47.7247 46.7443 48.0238C46.4272 48.6389 46.4058 49.7951 46.7011 50.3597C47.2123 51.337 48.0044 51.8378 49.1719 51.9218L49.935 51.9767V54.6164V57.256L50.2328 57.4908C50.6245 57.7997 50.981 57.7877 51.37 57.4524L51.6872 57.179L51.7201 53.911L51.753 50.643L58.7289 43.6494L65.7048 36.6557L72.7389 43.6796L79.773 50.7034L79.8042 56.5346L79.8354 62.3658L80.0835 62.6145C80.4136 62.9451 80.9448 62.9379 81.3059 62.5977L81.5877 62.3324V57.1582V51.984L82.2377 51.9815C83.0603 51.9783 83.597 51.7495 84.1693 51.1584C84.6697 50.6416 84.9796 49.8826 84.9779 49.178C84.9754 48.127 84.9276 48.0732 76.5406 39.69C71.2317 34.3835 68.4876 31.7188 68.1669 31.5585C67.0415 30.9966 65.6883 30.8485 64.5305 31.1607ZM75.7093 32.6351C75.1941 32.8585 74.6197 33.4164 74.3197 33.9846C74.146 34.314 74.0792 34.6497 74.0753 35.2125C74.0708 35.8933 74.1025 36.0135 74.337 36.2041C74.6737 36.4777 75.1571 36.4819 75.4869 36.2141C75.6722 36.0637 75.7666 35.8241 75.8326 35.3361C75.9604 34.3928 76.1433 34.2679 77.3977 34.2679C78.9266 34.2679 78.8563 34.1011 78.8974 37.8207L78.9311 40.8605L79.2483 41.1339C79.6533 41.4829 80.0544 41.4813 80.4058 41.129L80.6833 40.8509V37.669C80.6833 35.2555 80.6464 34.3992 80.5309 34.1226C80.2837 33.5314 79.7711 33.0074 79.1618 32.7229C78.6706 32.4936 78.4203 32.4574 77.3485 32.4603C76.4942 32.4625 75.9811 32.5173 75.7093 32.6351ZM67.3031 33.18C67.7082 33.401 70.0431 35.6691 75.5196 41.1612C82.4337 48.095 83.1703 48.8684 83.1703 49.1937C83.1703 49.7451 82.7377 50.1818 82.2066 50.1666C81.7966 50.1551 81.4722 49.8473 74.1941 42.563C70.0224 38.3876 66.498 34.9151 66.3623 34.8463C66.0451 34.6856 65.3645 34.6856 65.0473 34.8463C64.9115 34.9151 61.3818 38.3929 57.2036 42.5748C49.8751 49.9097 49.5922 50.1778 49.1984 50.1667C48.4872 50.1464 48.0528 49.4518 48.3733 48.847C48.6051 48.4091 63.7397 33.4189 64.1806 33.1903C64.8289 32.8542 65.1026 32.7991 65.9385 32.836C66.5489 32.863 66.8709 32.9441 67.3031 33.18ZM61.7253 52.6278C60.7617 52.8268 59.9162 53.4948 59.4667 54.4123C59.18 54.9975 59.1442 55.2021 59.1081 56.4556C59.082 57.3628 59.115 57.962 59.2027 58.174C59.3618 58.5594 59.8409 58.7889 60.2639 58.6825C60.7962 58.5485 60.9004 58.2538 60.9006 56.8788C60.9007 55.4903 61.0438 55.0376 61.6152 54.6174C61.9226 54.3913 62.0702 54.3827 65.6283 54.3827C70.7142 54.3827 70.3962 54.1334 70.3962 58.1202V60.8029L70.7266 61.1341C71.1338 61.5423 71.4072 61.5515 71.8571 61.172L72.2049 60.8786V58.0758C72.2049 54.8867 72.1452 54.5629 71.401 53.7154C71.1513 53.431 70.6677 53.065 70.3073 52.8875L69.6614 52.5695L65.9309 52.5496C63.8791 52.5386 61.9865 52.5738 61.7253 52.6278ZM52.3654 59.152C51.2461 59.4016 50.4199 59.7585 49.0589 60.5801C46.9593 61.8475 44.3395 64.1556 43.8589 65.1612C43.7141 65.4644 43.7123 65.5598 43.8462 65.8401C43.932 66.0195 44.1351 66.23 44.2974 66.3081C44.7517 66.5264 45.1689 66.3124 45.8088 65.5333C47.0765 63.9897 49.882 61.907 51.64 61.2041C54.2621 60.156 57.1531 60.7123 59.5491 62.7261C60.6048 63.6133 61.765 64.2341 62.6962 64.41C63.0312 64.4733 64.7099 64.5262 66.4267 64.5276C69.2238 64.5298 69.5954 64.5518 70.0005 64.7399C71.2609 65.3249 71.7872 66.8548 71.1366 68.0424C70.9842 68.3205 70.7953 68.6877 70.7167 68.8583C70.4123 69.5189 70.145 69.5624 66.0055 69.6246L62.2366 69.6813L62.0206 69.9488C61.7109 70.3326 61.7515 70.7219 62.1421 71.1134L62.4795 71.4517L66.2399 71.4126C70.46 71.3688 70.498 71.3624 71.6137 70.518C72.1215 70.1338 72.47 69.9913 73.6986 69.6665C77.3989 68.688 80.2146 67.5765 82.7181 66.106C84.264 65.198 85.6954 65.0847 87.0671 65.7615C88.3726 66.4059 88.574 66.9795 87.7665 67.7551C86.4159 69.0523 82.2633 71.9163 79.2137 73.6537C75.1115 75.9906 72.5554 76.899 69.2092 77.2092C68.5253 77.2725 65.0406 77.4024 61.4656 77.4978C57.8905 77.5932 54.7634 77.6991 54.5162 77.733C54.2691 77.7668 53.9767 77.8767 53.8662 77.9768C53.5703 78.2453 53.6065 78.8681 53.9372 79.1998C54.1843 79.4475 54.2793 79.4675 54.9829 79.4193C55.4085 79.3902 58.6055 79.2906 62.0873 79.198C65.5691 79.1054 68.7231 79.0018 69.0961 78.9678C72.5064 78.657 74.9954 77.8747 78.3561 76.0576C81.4996 74.358 84.2873 72.5916 86.9008 70.6437C89.7285 68.5361 90.0056 68.1971 89.9999 66.8519C89.9958 65.8955 89.8255 65.5244 89.0944 64.8792C88.0616 63.9679 86.755 63.5087 85.1887 63.5065C83.9774 63.5048 82.9875 63.7884 81.8115 64.4739C79.7994 65.6466 76.8798 66.8524 74.2806 67.584C73.6148 67.7714 73.0662 67.9245 73.0614 67.9243C73.0566 67.9241 73.0521 67.4524 73.0513 66.8761C73.0501 65.9795 73.0063 65.7346 72.7474 65.1783C72.3617 64.3493 71.5389 63.5243 70.6763 63.1015L70.0005 62.7703L66.3831 62.7128L62.7656 62.6552L62.0308 62.3028C61.6267 62.1089 61.0671 61.7473 60.7873 61.4991C59.6248 60.4682 58.4459 59.8085 56.8824 59.3136C55.8255 58.9791 53.5118 58.8963 52.3654 59.152ZM39.2417 66.7881C38.4271 66.9622 37.8327 67.3279 35.4087 69.1466C33.304 70.7258 33.0309 70.9674 33.0008 71.2761C32.9711 71.5813 33.7581 72.6801 39.3734 80.1719C42.8969 84.8731 45.8597 88.7833 45.9572 88.8612C46.3655 89.1871 46.715 89.0207 48.8744 87.4723C50.0484 86.6304 51.2506 85.7059 51.5459 85.4178C52.7255 84.2674 53.1961 82.3775 52.6587 80.9493C52.4864 80.4917 51.1498 78.6182 47.7896 74.1248C42.9467 67.6488 42.6904 67.3534 41.5696 66.9602C40.9361 66.7378 39.852 66.6577 39.2417 66.7881ZM40.8348 68.5049C41.0835 68.5739 41.436 68.7366 41.6182 68.8665C42 69.1386 50.5357 80.5345 50.9217 81.2877C51.2715 81.97 51.2547 82.6026 50.8676 83.3222C50.6041 83.8122 50.2687 84.1161 48.6654 85.3182C47.6251 86.0982 46.729 86.7364 46.674 86.7364C46.5697 86.7364 35.3942 71.906 35.2865 71.6248C35.2449 71.5162 35.8383 71.0144 37.1256 70.07C39.4629 68.355 39.7932 68.2157 40.8348 68.5049Z" fill="#0E78DD"/>
<defs>
<filter id="filter0_d_58_2504" x="0" y="0" width="134" height="134" filterUnits="userSpaceOnUse" color-interpolation-filters="sRGB">
<feFlood flood-opacity="0" result="BackgroundImageFix"/>
<feColorMatrix in="SourceAlpha" type="matrix" values="0 0 0 0 0 0 0 0 0 0 0 0 0 0 0 0 0 0 127 0" result="hardAlpha"/>
<feMorphology radius="1" operator="dilate" in="SourceAlpha" result="effect1_dropShadow_58_2504"/>
<feOffset dx="5" dy="7"/>
<feGaussianBlur stdDeviation="8"/>
<feComposite in2="hardAlpha" operator="out"/>
<feColorMatrix type="matrix" values="0 0 0 0 0.525 0 0 0 0 0.525 0 0 0 0 0.525 0 0 0 0.16 0"/>
<feBlend mode="normal" in2="BackgroundImageFix" result="effect1_dropShadow_58_2504"/>
<feBlend mode="normal" in="SourceGraphic" in2="effect1_dropShadow_58_2504" result="shape"/>
</filter>
</defs>
</svg>
