<svg width="134" height="134" viewBox="0 0 134 134" fill="none" xmlns="http://www.w3.org/2000/svg">
<g filter="url(#filter0_d_69_111)">
<circle cx="62" cy="60" r="50" fill="white"/>
</g>
<path fill-rule="evenodd" clip-rule="evenodd" d="M54.3705 42.2231C49.5713 45.3675 47.8982 46.5097 47.8204 46.6948C47.6253 47.1587 48.1144 47.717 48.5867 47.5694C48.687 47.5381 51.5218 45.7149 54.8864 43.5179C58.2511 41.3209 61.0588 39.4905 61.1259 39.4503C61.3014 39.3452 82.8484 53.4581 82.9945 53.774C83.1464 54.1023 83.1288 54.4754 82.9495 54.7274C82.7543 55.002 82.2596 55.2071 81.9679 55.1345C81.8435 55.1036 77.2335 52.1265 71.7233 48.5187C63.235 42.961 61.6438 41.9524 61.3061 41.9148C60.9117 41.871 60.807 41.9365 50.9152 48.4102C45.4193 52.007 40.796 55.0024 40.6412 55.0667C40.2536 55.2277 39.8851 55.137 39.608 54.8127C39.3422 54.5015 39.2974 53.9681 39.5134 53.6871C39.5866 53.5919 40.947 52.6559 42.5367 51.6073C45.6483 49.5545 45.7621 49.4506 45.4678 48.9316C45.3598 48.7412 45.2434 48.6769 44.966 48.6543C44.634 48.6272 44.3842 48.7692 41.8751 50.4106C40.3737 51.3927 38.9826 52.339 38.7839 52.5135C37.1923 53.9103 38.1861 56.4963 40.3128 56.4916C40.9552 56.4902 41.3276 56.3265 42.5975 55.4872C43.1438 55.1261 43.6133 54.8307 43.6409 54.8307C43.6684 54.8307 43.6909 60.0302 43.6909 66.3851V77.9396H42.3004C40.6273 77.9396 40.1367 78.0539 39.6354 78.5607C38.8274 79.3775 38.7796 80.4881 39.5158 81.3354C40.1569 82.0732 38.1607 82.0139 61.3946 81.9857L82.148 81.9605L82.5549 81.6827C83.0737 81.3284 83.4787 80.5793 83.4758 79.9797C83.4716 79.1216 82.7779 78.2521 81.9295 78.0416C81.7032 77.9855 80.9034 77.9396 80.152 77.9396H78.786V76.1958C78.786 74.5716 78.7727 74.4353 78.5915 74.2084C78.3567 73.9143 77.9666 73.8867 77.6469 74.1414C77.4297 74.3144 77.4248 74.3534 77.3964 76.1288L77.3673 77.9396H74.1356H70.9037V75.4438V72.9481H77.7568C83.3005 72.9481 84.6679 72.9242 84.9134 72.8232C85.3112 72.6595 85.7892 72.1151 85.9185 71.6786C85.9903 71.4363 86.013 69.406 85.9931 64.9986L85.9646 58.6668L85.7419 58.3139C85.6195 58.1198 85.3481 57.8494 85.1389 57.7131L84.7585 57.4651L77.8441 57.4397L70.9297 57.4143L70.8829 56.3767C70.8254 55.1023 70.6132 54.5391 69.9855 53.9949C69.5518 53.6188 68.8614 53.3517 68.3232 53.3517C67.7849 53.3517 67.0946 53.6188 66.6609 53.9949C66.0332 54.5391 65.821 55.1023 65.7635 56.3767L65.7167 57.4143L58.8023 57.4397L51.8879 57.4651L51.5075 57.7131C51.2983 57.8494 51.0269 58.1198 50.9045 58.3139L50.6818 58.6668L50.6533 64.9986C50.6334 69.406 50.6561 71.4363 50.7279 71.6786C50.8369 72.0468 51.2777 72.6023 51.6096 72.7898C51.7299 72.8577 52.3801 72.9201 53.2623 72.9481L54.7168 72.9943L54.7417 75.4669L54.7668 77.9396H49.9326H45.0985V65.8878V53.8361L53.1673 48.5602L61.2363 43.2845L69.3074 48.5669L77.3785 53.8493V54.8441C77.3785 55.3911 77.4261 55.9419 77.4845 56.0679C77.6308 56.3842 78.0264 56.5367 78.3381 56.3968C78.6561 56.2541 78.786 55.946 78.786 55.3347C78.786 55.0575 78.8062 54.8307 78.8308 54.8307C78.8554 54.8307 79.3804 55.1593 79.9976 55.561C81.2997 56.4085 81.6111 56.5294 82.3546 56.4764C83.7981 56.3736 84.7831 54.9709 84.3772 53.5958C84.2922 53.3076 84.0886 52.9232 83.9211 52.7347C83.7436 52.5348 79.1049 49.4371 72.6866 45.2323C62.3466 38.4583 61.7292 38.0686 61.2854 38.0352L60.8162 38L54.3705 42.2231ZM60.4878 46.3359C58.0718 46.7469 56.448 49.2095 57.062 51.5314C57.4452 52.9807 58.4695 54.076 59.8927 54.5584C60.5707 54.7882 61.8579 54.8026 62.4987 54.5875C64.1159 54.0447 65.2323 52.7519 65.4878 51.126C65.8072 49.0932 64.4737 47.0344 62.4671 46.4625C61.8418 46.2843 61.0785 46.2355 60.4878 46.3359ZM60.5816 48.7761V49.8392H59.4543H58.327L58.4734 49.4925C58.7888 48.7455 59.2559 48.2583 60.0162 47.8836C60.5802 47.6055 60.5816 47.6078 60.5816 48.7761ZM62.5318 47.9378C63.2436 48.2991 63.8641 48.9901 64.0112 49.585L64.074 49.8392H62.9846H61.8953V48.7761C61.8953 48.1063 61.9312 47.7131 61.9923 47.7131C62.0457 47.7131 62.2884 47.8143 62.5318 47.9378ZM60.5816 52.2949C60.5816 53.3605 60.5809 53.3639 60.3705 53.3022C59.525 53.0537 58.4234 51.9328 58.4234 51.3211C58.4234 51.261 58.8232 51.2257 59.5025 51.2257H60.5816V52.2949ZM64.0536 51.3068C64.0536 51.7455 63.3235 52.6721 62.7008 53.0237C61.8745 53.4903 61.8953 53.509 61.8953 52.2949V51.2257H62.9745C63.568 51.2257 64.0536 51.2622 64.0536 51.3068ZM68.9693 54.9312C69.3937 55.2601 69.4962 55.5723 69.4962 56.5361V57.4189H68.3232H67.1502V56.5361C67.1502 55.5723 67.2527 55.2601 67.6771 54.9312C67.8406 54.8046 68.0627 54.7382 68.3232 54.7382C68.5837 54.7382 68.8058 54.8046 68.9693 54.9312ZM84.4913 58.9163C84.5766 59.0004 84.6039 60.5212 84.6039 65.1954C84.6039 70.6795 84.5876 71.3795 84.4565 71.5087C84.3236 71.6396 82.7307 71.654 68.3232 71.654C53.9157 71.654 52.3228 71.6396 52.1898 71.5087C52.0588 71.3795 52.0424 70.6795 52.0424 65.1954C52.0424 60.5212 52.0697 59.0004 52.155 58.9163C52.3188 58.755 84.3276 58.755 84.4913 58.9163ZM57.4043 61.7504C57.2068 61.945 57.2035 62.0008 57.2035 65.1835C57.2035 68.2955 57.2106 68.4257 57.3911 68.6036C57.6157 68.8248 58.0213 68.8428 58.3086 68.6445C58.5078 68.5072 58.5172 68.4404 58.5172 67.1656V65.8305H58.9305H59.3437L60.1269 67.2864C60.8824 68.6908 60.9212 68.7433 61.2252 68.772C61.5859 68.8059 61.9892 68.5072 61.9892 68.206C61.9892 68.047 61.343 66.7725 60.8484 65.9558L60.6723 65.6651L61.0737 65.4333C62.1018 64.8398 62.3007 63.087 61.4366 62.2358C60.9667 61.773 60.56 61.669 58.9761 61.6066C57.6626 61.5548 57.5967 61.5608 57.4043 61.7504ZM63.3967 61.6981L63.1621 61.8149L63.1374 65.1861C63.1147 68.2734 63.126 68.5671 63.2726 68.6729C63.3885 68.7566 63.9697 68.7885 65.3786 68.7885C67.0225 68.7885 67.3474 68.7659 67.472 68.6432C67.6411 68.4766 67.664 68.1189 67.5223 67.858C67.4325 67.6927 67.3121 67.6792 65.9271 67.6792H64.4289V66.7087V65.7381H65.1587C66.006 65.7381 66.3057 65.5967 66.3057 65.1967C66.3057 64.7891 66.1557 64.7213 65.2547 64.7213H64.4289V63.7507V62.7801H65.8365C67.119 62.7801 67.2608 62.7637 67.4317 62.5953C67.535 62.4936 67.6194 62.3064 67.6194 62.1793C67.6194 62.0522 67.535 61.865 67.4317 61.7633C67.2569 61.5911 67.12 61.5786 65.4377 61.5799C64.1702 61.5808 63.5613 61.6161 63.3967 61.6981ZM68.988 61.6817C68.8376 61.7223 68.68 61.8093 68.6376 61.875C68.5953 61.9406 68.56 63.4399 68.5592 65.2066C68.5579 68.2964 68.5649 68.4257 68.7455 68.6036C68.9769 68.8316 69.4094 68.8423 69.6734 68.6267C69.8621 68.4726 69.8725 68.3719 69.895 66.4934L69.9184 64.5218L71.0312 66.5688C72.1807 68.6834 72.2661 68.7885 72.8335 68.7885C72.9591 68.7885 73.1464 68.7053 73.2496 68.6036C73.4301 68.4258 73.4373 68.2955 73.4373 65.2011C73.4373 62.7324 73.4094 61.9459 73.3172 61.8217C73.174 61.6289 72.4771 61.5895 72.2657 61.7623C72.153 61.8544 72.1225 62.2473 72.1019 63.8761L72.0767 65.8767L71.0974 64.0122C70.5588 62.9866 70.0519 62.0612 69.971 61.9555C69.7835 61.7107 69.3395 61.587 68.988 61.6817ZM74.6572 61.6459C74.4449 61.7255 74.3787 61.8672 74.3771 62.2454C74.3752 62.6941 74.5476 62.7801 75.4486 62.7801H76.1586V65.5994C76.1586 68.2955 76.1668 68.4268 76.3463 68.6036C76.5503 68.8045 76.9985 68.8469 77.2908 68.6928C77.4643 68.6013 77.4723 68.4696 77.4723 65.6886V62.7801H78.2554C78.8949 62.7801 79.067 62.7492 79.1938 62.6111C79.4044 62.3818 79.3894 61.988 79.1614 61.7633C78.9845 61.5891 78.854 61.5789 76.8858 61.5858C75.7375 61.5898 74.7346 61.6168 74.6572 61.6459ZM60.3309 62.969C60.6081 63.1838 60.7268 63.6368 60.6339 64.1249C60.5393 64.6215 60.1531 64.813 59.2444 64.8134L58.5172 64.8137V63.7969V62.7801H59.3021C59.9506 62.7801 60.1295 62.813 60.3309 62.969ZM65.7427 75.4438V77.9396H60.91H56.0774V75.5055C56.0774 74.1666 56.1056 73.0435 56.14 73.0097C56.1744 72.9758 58.349 72.9481 60.9726 72.9481H65.7427V75.4438ZM69.4737 76.8535L69.4982 80.7127H68.3242H67.1502V76.892C67.1502 74.7906 67.1797 73.0423 67.2156 73.0069C67.2516 72.9714 67.7688 72.9542 68.3651 72.9684L69.4492 72.9943L69.4737 76.8535ZM65.7427 80.0204V80.7147L53.2722 80.6906C41.159 80.6671 40.7959 80.6614 40.6041 80.4903C40.3464 80.2605 40.3414 79.7601 40.5943 79.511C40.7801 79.328 40.907 79.3261 53.2623 79.3261H65.7427V80.0204ZM81.8649 79.5146C82.1357 79.7631 82.1397 80.2524 81.8729 80.4903C81.6842 80.6586 81.4345 80.6675 76.2896 80.6918L70.9037 80.7171V80.0216V79.3261H76.2816C81.5642 79.3261 81.6633 79.3294 81.8649 79.5146Z" fill="#0E78DD"/>
<defs>
<filter id="filter0_d_69_111" x="0" y="0" width="134" height="134" filterUnits="userSpaceOnUse" color-interpolation-filters="sRGB">
<feFlood flood-opacity="0" result="BackgroundImageFix"/>
<feColorMatrix in="SourceAlpha" type="matrix" values="0 0 0 0 0 0 0 0 0 0 0 0 0 0 0 0 0 0 127 0" result="hardAlpha"/>
<feMorphology radius="1" operator="dilate" in="SourceAlpha" result="effect1_dropShadow_69_111"/>
<feOffset dx="5" dy="7"/>
<feGaussianBlur stdDeviation="8"/>
<feComposite in2="hardAlpha" operator="out"/>
<feColorMatrix type="matrix" values="0 0 0 0 0.525 0 0 0 0 0.525 0 0 0 0 0.525 0 0 0 0.16 0"/>
<feBlend mode="normal" in2="BackgroundImageFix" result="effect1_dropShadow_69_111"/>
<feBlend mode="normal" in="SourceGraphic" in2="effect1_dropShadow_69_111" result="shape"/>
</filter>
</defs>
</svg>
