<svg width="134" height="134" viewBox="0 0 134 134" fill="none" xmlns="http://www.w3.org/2000/svg">
<g filter="url(#filter0_d_69_110)">
<circle cx="62" cy="60" r="50" fill="white"/>
</g>
<path fill-rule="evenodd" clip-rule="evenodd" d="M58.5883 43.3645L49.3733 48.722H42.1327C37.7759 48.722 34.6365 48.7703 34.2502 48.8434C33.3809 49.0078 32.7399 49.4864 32.3328 50.2748L32 50.9194V59.3304V67.7415L32.3328 68.386C32.7399 69.1744 33.3809 69.653 34.2502 69.8175C34.6243 69.8882 37.2705 69.9389 40.5947 69.9389H46.2975V75.0622V80.1856H39.3917H32.4859L32.2429 80.4495C31.7986 80.932 31.9921 81.6183 32.643 81.8686C33.0984 82.0438 91.9042 82.0438 92.3595 81.8686C93.0104 81.6183 93.2039 80.932 92.7596 80.4495C92.5234 80.1929 92.4419 80.1856 89.781 80.1856H87.0453V68.1306C87.0453 61.5003 87.0678 56.0756 87.0954 56.0756C87.123 56.0756 87.6563 56.3739 88.2806 56.7386C89.5794 57.4973 89.9977 57.5664 90.3727 57.084C90.6068 56.7828 90.6197 56.6172 90.6197 53.9028C90.6197 51.3506 90.597 51.0121 90.4111 50.7906C90.2965 50.6541 88.9427 49.8142 87.4027 48.9243C85.8628 48.0345 80.9927 45.211 76.5804 42.6498C70.505 39.1233 68.4663 37.9947 68.1806 38C67.9082 38.0051 65.2387 39.4981 58.5883 43.3645ZM78.528 45.872L88.7729 51.8222L88.8061 53.3974L88.8393 54.9728L83.385 51.8085C80.385 50.0681 75.8125 47.4139 73.2237 45.9104C70.4243 44.2845 68.3922 43.1767 68.2095 43.1767C68.0269 43.1767 65.9229 44.3242 63.0156 46.0096L58.1288 48.8426H55.5294C54.0996 48.8426 52.9682 48.8018 53.0149 48.7521C53.1493 48.6092 68.0277 39.9477 68.1624 39.9341C68.2289 39.9274 72.8934 42.5994 78.528 45.872ZM76.7392 50.0282L85.1985 54.9437V67.5346V80.1254H80.1944H75.1903L75.1597 72.2072L75.1291 64.2891L74.8159 64.04C74.5149 63.8003 74.3621 63.7908 70.8254 63.7908H67.148V57.3551V50.9194L66.8152 50.2748C66.6076 49.873 66.2899 49.4933 65.9714 49.2665C65.4696 48.9093 65.4282 48.9017 63.6532 48.8426L61.846 48.7823L65.0033 46.9473C66.7399 45.938 68.1875 45.1124 68.2203 45.1124C68.253 45.1125 72.0865 47.3246 76.7392 50.0282ZM65.1178 50.9147C65.3574 51.1748 65.3608 51.2906 65.357 59.3231C65.3528 68.2479 65.3908 67.7939 64.6303 68.0146C64.0894 68.1716 35.0586 68.1716 34.5177 68.0146C33.7572 67.7939 33.7952 68.2479 33.791 59.3231C33.7872 51.2906 33.7905 51.1748 34.0301 50.9147L34.2731 50.6508H49.574H64.8749L65.1178 50.9147ZM38.3963 55.2338C36.4773 55.8166 36.1415 58.7751 37.8716 59.8572C38.3375 60.1487 38.6042 60.218 39.5092 60.2828C40.6633 60.3654 40.8115 60.4501 40.815 61.0296C40.8184 61.6374 40.5333 61.7414 38.8635 61.7414C38.0288 61.7414 37.2478 61.7946 37.1279 61.8595C36.5586 62.1677 36.6675 63.3391 37.2799 63.4946C37.4398 63.5352 38.3145 63.5507 39.2236 63.529C41.146 63.483 41.5937 63.3235 42.187 62.4738C42.5106 62.0103 42.5444 61.8725 42.5444 61.0181C42.5444 60.1642 42.5104 60.0258 42.187 59.561C41.6541 58.7955 40.9858 58.4866 39.8634 58.4866C38.9119 58.4866 38.7027 58.3872 38.512 57.845C38.4321 57.6179 38.609 57.167 38.839 57.0116C38.911 56.9629 39.6704 56.9223 40.5262 56.9212C41.9263 56.9197 42.1087 56.8947 42.3432 56.6736C42.5133 56.5133 42.604 56.2845 42.604 56.0153C42.604 55.7461 42.5133 55.5173 42.3432 55.357C42.1052 55.1326 41.9364 55.112 40.407 55.1215C39.4857 55.1272 38.5808 55.1777 38.3963 55.2338ZM45.7239 55.3221C45.572 55.4543 45.0052 56.8673 44.2073 59.1034C43.0073 62.4661 42.9427 62.6938 43.0965 63.0185C43.3144 63.4787 43.8276 63.6613 44.2385 63.4252C44.5768 63.2308 44.6647 63.1049 44.9302 62.4346L45.1092 61.9825H46.2829H47.4565L47.6642 62.5551C48.0176 63.5296 48.5733 63.799 49.2005 63.2998C49.399 63.1419 49.5144 62.9321 49.5144 62.7297C49.5144 62.5535 48.9743 60.8894 48.3141 59.0315C47.0687 55.5265 46.8495 55.1112 46.2445 55.1112C46.0916 55.1112 45.8574 55.206 45.7239 55.3221ZM50.1643 55.4071L49.8718 55.7029V59.3304V62.9579L50.1643 63.2537C50.4552 63.5481 50.4691 63.5497 52.829 63.5497C55.0486 63.5497 55.2215 63.5337 55.5152 63.2998C55.9493 62.9543 55.9493 62.3368 55.5152 61.9913C55.2296 61.764 55.0416 61.7414 53.4301 61.7414H51.659V58.6762V55.6109L51.3451 55.3611C50.9287 55.0296 50.5217 55.0455 50.1643 55.4071ZM56.803 55.3901C56.5488 55.664 56.544 55.7368 56.544 59.3473V63.0254L56.8197 63.2876C57.0842 63.5388 57.1933 63.5496 59.4707 63.5458C62.0047 63.5417 62.1473 63.5115 62.3651 62.9319C62.4994 62.5747 62.2723 61.9377 61.9686 61.8198C61.8577 61.7766 60.9939 61.7414 60.049 61.7414H58.3312V61.0292V60.3169L60.1153 60.2758C61.7642 60.2377 61.9191 60.2145 62.1606 59.9701C62.4814 59.6452 62.5022 59.0617 62.2048 58.7292C62.0053 58.5061 61.8404 58.4866 60.1595 58.4866H58.3312V57.703V56.9194L60.0886 56.9156C61.9627 56.9115 62.1555 56.8595 62.3651 56.3016C62.4994 55.9444 62.2723 55.3074 61.9686 55.1895C61.8577 55.1464 60.7084 55.1112 59.4146 55.1112C57.1096 55.1112 57.0569 55.1168 56.803 55.3901ZM46.5795 59.5026C46.6865 59.8294 46.7741 60.1141 46.7741 60.1355C46.7741 60.1568 46.5596 60.1743 46.2975 60.1743C46.0354 60.1743 45.8209 60.1384 45.8209 60.0945C45.8209 59.8394 46.2365 58.7399 46.3039 58.8165C46.3485 58.8672 46.4725 59.1759 46.5795 59.5026ZM73.3435 72.8923V80.1856H68.2203H63.097V75.0622V69.9389H63.6765C65.2876 69.9389 66.2624 69.4567 66.8152 68.386C67.1067 67.8213 67.148 67.6086 67.148 66.6703V65.599H70.2457H73.3435V72.8923ZM51.0633 75.0622V80.1856H49.574H48.0847V75.0622V69.9389H49.574H51.0633V75.0622ZM61.2813 75.0321L61.2503 80.1254L57.0504 80.1571L52.8505 80.1888V75.0638V69.9389H57.0815H61.3124L61.2813 75.0321ZM71.0363 71.5148C70.739 71.7513 70.7223 71.8217 70.7223 72.8409C70.7223 74.086 70.8982 74.3992 71.5975 74.3992C72.189 74.3992 72.4298 74.0582 72.4876 73.1385C72.547 72.194 72.3642 71.5876 71.9643 71.4032C71.5459 71.2103 71.3962 71.2283 71.0363 71.5148Z" fill="#0E78DD"/>
<defs>
<filter id="filter0_d_69_110" x="0" y="0" width="134" height="134" filterUnits="userSpaceOnUse" color-interpolation-filters="sRGB">
<feFlood flood-opacity="0" result="BackgroundImageFix"/>
<feColorMatrix in="SourceAlpha" type="matrix" values="0 0 0 0 0 0 0 0 0 0 0 0 0 0 0 0 0 0 127 0" result="hardAlpha"/>
<feMorphology radius="1" operator="dilate" in="SourceAlpha" result="effect1_dropShadow_69_110"/>
<feOffset dx="5" dy="7"/>
<feGaussianBlur stdDeviation="8"/>
<feComposite in2="hardAlpha" operator="out"/>
<feColorMatrix type="matrix" values="0 0 0 0 0.525 0 0 0 0 0.525 0 0 0 0 0.525 0 0 0 0.16 0"/>
<feBlend mode="normal" in2="BackgroundImageFix" result="effect1_dropShadow_69_110"/>
<feBlend mode="normal" in="SourceGraphic" in2="effect1_dropShadow_69_110" result="shape"/>
</filter>
</defs>
</svg>
