<svg width="10" height="13" viewBox="0 0 10 13" fill="none" xmlns="http://www.w3.org/2000/svg">
<path d="M5.08386 1.50317C6.37547 1.50317 7.43225 2.55995 7.43225 3.85156C7.43225 5.08446 6.19934 7.08059 5.08386 8.48962C3.96838 7.02188 2.73547 5.08446 2.73547 3.85156C2.73547 2.55995 3.79225 1.50317 5.08386 1.50317ZM5.08386 0.328979C3.14644 0.328979 1.56128 1.91414 1.56128 3.85156C1.56128 6.4935 5.08386 10.3096 5.08386 10.3096C5.08386 10.3096 8.60644 6.43479 8.60644 3.85156C8.60644 1.91414 7.02128 0.328979 5.08386 0.328979ZM5.08386 2.67737C4.43805 2.67737 3.90967 3.20575 3.90967 3.85156C3.90967 4.49737 4.43805 5.02575 5.08386 5.02575C5.72967 5.02575 6.25805 4.49737 6.25805 3.85156C6.25805 3.20575 5.72967 2.67737 5.08386 2.67737ZM9.78063 10.3096C9.78063 11.6012 7.66708 12.658 5.08386 12.658C2.50063 12.658 0.387085 11.6012 0.387085 10.3096C0.387085 9.5464 1.0916 8.90059 2.20708 8.43092L2.55934 8.9593C1.97225 9.25285 1.56128 9.60511 1.56128 10.0161C1.56128 10.838 3.14644 11.4838 5.08386 11.4838C7.02128 11.4838 8.60644 10.838 8.60644 10.0161C8.60644 9.60511 8.19547 9.25285 7.54967 8.9593L7.90192 8.43092C9.07612 8.90059 9.78063 9.5464 9.78063 10.3096Z" fill="#0B5FAE"/>
</svg>
