<svg width="11" height="14" viewBox="0 0 11 14" fill="none" xmlns="http://www.w3.org/2000/svg">
<path d="M5.60522 13.4526C4.6995 12.6803 3.85997 11.8335 3.09542 10.9213C1.94809 9.55131 0.585633 7.51105 0.585633 5.56686C0.585135 4.57394 0.879284 3.6032 1.43085 2.77748C1.98242 1.95175 2.76662 1.30817 3.6842 0.928176C4.60178 0.548183 5.61149 0.448861 6.58555 0.64278C7.55961 0.836699 8.45424 1.31514 9.15621 2.01756C9.62357 2.48272 9.99402 3.03592 10.2461 3.64516C10.4982 4.25439 10.6269 4.90756 10.6248 5.56686C10.6248 7.51105 9.26234 9.55131 8.11501 10.9213C7.35046 11.8335 6.51093 12.6802 5.60522 13.4526ZM5.60522 3.4162C5.03467 3.4162 4.48749 3.64279 4.08405 4.04612C3.68061 4.44944 3.45397 4.99647 3.45397 5.56686C3.45397 6.13725 3.68061 6.68428 4.08405 7.0876C4.48749 7.49093 5.03467 7.71752 5.60522 7.71752C6.17576 7.71752 6.72294 7.49093 7.12638 7.0876C7.52982 6.68428 7.75647 6.13725 7.75647 5.56686C7.75647 4.99647 7.52982 4.44944 7.12638 4.04612C6.72294 3.64279 6.17576 3.4162 5.60522 3.4162Z" fill="#0B5FAE"/>
</svg>
