<svg width="12" height="17" viewBox="0 0 12 17" fill="none" xmlns="http://www.w3.org/2000/svg">
<path d="M6 0.773926C8.4825 0.773926 10.5 2.76893 10.5 5.23643C10.5 8.58143 6 13.5239 6 13.5239C6 13.5239 1.5 8.58143 1.5 5.23643C1.5 2.76893 3.5175 0.773926 6 0.773926ZM6 3.77393C5.60218 3.77393 5.22064 3.93196 4.93934 4.21327C4.65804 4.49457 4.5 4.8761 4.5 5.27393C4.5 5.67175 4.65804 6.05328 4.93934 6.33459C5.22064 6.61589 5.60218 6.77393 6 6.77393C6.39782 6.77393 6.77936 6.61589 7.06066 6.33459C7.34196 6.05328 7.5 5.67175 7.5 5.27393C7.5 4.8761 7.34196 4.49457 7.06066 4.21327C6.77936 3.93196 6.39782 3.77393 6 3.77393ZM12 13.5239C12 15.1814 9.315 16.5239 6 16.5239C2.685 16.5239 0 15.1814 0 13.5239C0 12.5564 0.915 11.6939 2.3325 11.1464L2.8125 11.8289C2.0025 12.1664 1.5 12.6314 1.5 13.1489C1.5 14.1839 3.5175 15.0239 6 15.0239C8.4825 15.0239 10.5 14.1839 10.5 13.1489C10.5 12.6314 9.9975 12.1664 9.1875 11.8289L9.6675 11.1464C11.085 11.6939 12 12.5564 12 13.5239Z" fill="#737D8C"/>
</svg>
