<svg width="6" height="12" viewBox="0 0 6 12" fill="none" xmlns="http://www.w3.org/2000/svg">
<path d="M0.0839233 7.96124H1.25812C1.25812 8.5953 2.06244 9.13543 3.01941 9.13543C3.97638 9.13543 4.7807 8.5953 4.7807 7.96124C4.7807 7.31543 4.17012 7.08059 2.8785 6.76943C1.63386 6.45827 0.0839233 6.07079 0.0839233 4.43866C0.0839233 3.38775 0.946956 2.49537 2.13876 2.19595V0.916077H3.90005V2.19595C5.09186 2.49537 5.95489 3.38775 5.95489 4.43866H4.7807C4.7807 3.80459 3.97638 3.26446 3.01941 3.26446C2.06244 3.26446 1.25812 3.80459 1.25812 4.43866C1.25812 5.08446 1.8687 5.3193 3.16031 5.63046C4.40496 5.94163 5.95489 6.32911 5.95489 7.96124C5.95489 9.01214 5.09186 9.90453 3.90005 10.2039V11.4838H2.13876V10.2039C0.946956 9.90453 0.0839233 9.01214 0.0839233 7.96124Z" fill="#0B5FAE"/>
</svg>
