<svg width="14" height="14" viewBox="0 0 14 14" fill="none" xmlns="http://www.w3.org/2000/svg">
<path d="M5.38387 0.206451C6.68514 0.206451 7.93312 0.723379 8.85325 1.64352C9.77339 2.56366 10.2903 3.81163 10.2903 5.1129C10.2903 6.32819 9.84496 7.44535 9.11277 8.30587L9.31658 8.50968H9.9129L13.6871 12.2839L12.5548 13.4161L8.78064 9.64194V9.04561L8.57684 8.84181C7.71632 9.574 6.59916 10.0194 5.38387 10.0194C4.0826 10.0194 2.83462 9.50243 1.91448 8.58229C0.994345 7.66215 0.477417 6.41418 0.477417 5.1129C0.477417 3.81163 0.994345 2.56366 1.91448 1.64352C2.83462 0.723379 4.0826 0.206451 5.38387 0.206451ZM5.38387 1.71613C3.49677 1.71613 1.98709 3.22581 1.98709 5.1129C1.98709 7 3.49677 8.50968 5.38387 8.50968C7.27097 8.50968 8.78064 7 8.78064 5.1129C8.78064 3.22581 7.27097 1.71613 5.38387 1.71613Z" fill="white"/>
</svg>
