<svg width="18" height="18" viewBox="0 0 18 18" fill="none" xmlns="http://www.w3.org/2000/svg">
<path d="M8.77777 1.87354C4.84905 1.87354 1.65277 5.07024 1.65277 8.9995C1.65277 12.9288 4.84905 16.1255 8.77777 16.1255C12.7065 16.1255 15.9028 12.9288 15.9028 8.9995C15.9028 5.07024 12.7065 1.87354 8.77777 1.87354ZM8.77777 14.7003C5.63493 14.7003 3.07777 12.1428 3.07777 8.9995C3.07777 5.85624 5.63493 3.29873 8.77777 3.29873C11.9206 3.29873 14.4778 5.85624 14.4778 8.9995C14.4778 12.1428 11.9206 14.7003 8.77777 14.7003Z" fill="#0B5FAE"/>
<path d="M9.49025 5.43701H8.06525V9.29501L10.4115 11.6416L11.419 10.634L9.49025 8.70498V5.43701Z" fill="#0B5FAE"/>
</svg>
