<svg width="14" height="14" viewBox="0 0 14 14" fill="none" xmlns="http://www.w3.org/2000/svg">
<path d="M1.89261 13.0721C1.89261 13.0721 0.880737 13.0721 0.880737 12.0601C0.880737 11.048 1.89261 8.01177 6.95199 8.01177C12.0114 8.01177 13.0232 11.048 13.0232 12.0601C13.0232 13.0721 12.0114 13.0721 12.0114 13.0721H1.89261ZM6.95199 6.99969C7.75709 6.99969 8.52921 6.6798 9.0985 6.1104C9.66779 5.541 9.98761 4.76872 9.98761 3.96347C9.98761 3.15821 9.66779 2.38594 9.0985 1.81654C8.52921 1.24713 7.75709 0.927246 6.95199 0.927246C6.14689 0.927246 5.37477 1.24713 4.80548 1.81654C4.23619 2.38594 3.91636 3.15821 3.91636 3.96347C3.91636 4.76872 4.23619 5.541 4.80548 6.1104C5.37477 6.6798 6.14689 6.99969 6.95199 6.99969Z" fill="#0E78DD"/>
</svg>
